<svg xmlns="http://www.w3.org/2000/svg" aria-hidden="true" style="position:absolute;width:0;height:0;overflow:hidden">

   <!-- logo --> 
   <symbol viewBox="0 0 95 37" fill="none" id="logo" >
      <path d="M2.349 20.529H0.693C0.495 20.529 0.396 20.439 0.396 20.259V15.948C0.396 15.708 0.51 15.588 0.738 15.588H1.665C2.337 14.448 2.82 13.347 3.114 12.285C3.414 11.199 3.594 9.801 3.654 8.091L3.681 6.57C3.687 6.342 3.69 5.802 3.69 4.95C3.69 4.74 3.789 4.635 3.987 4.635H11.493C11.577 4.635 11.649 4.665 11.709 4.725C11.775 4.779 11.808 4.848 11.808 4.932V15.588H12.96C13.056 15.588 13.14 15.621 13.212 15.687C13.284 15.747 13.32 15.828 13.32 15.93V20.241C13.32 20.433 13.215 20.529 13.005 20.529H11.241C11.049 20.529 10.953 20.433 10.953 20.241V18H2.664V20.259C2.664 20.439 2.559 20.529 2.349 20.529ZM4.383 15.588H9.279V7.038H6.066C6.066 7.746 6.039 8.475 5.985 9.225C5.889 11.409 5.355 13.53 4.383 15.588ZM16.8695 18H15.0335C14.7755 18 14.6615 17.877 14.6915 17.631L16.0505 4.977C16.0745 4.743 16.2005 4.626 16.4285 4.626H18.7685C18.8585 4.626 18.9215 4.647 18.9575 4.689C18.9995 4.731 19.0475 4.818 19.1015 4.95L22.3235 13.86L25.4915 4.959C25.5335 4.833 25.5785 4.746 25.6265 4.698C25.6745 4.65 25.7435 4.626 25.8335 4.626H28.2275C28.4555 4.626 28.5785 4.743 28.5965 4.977L29.9555 17.631C29.9855 17.877 29.8685 18 29.6045 18H27.7775C27.6575 18 27.5705 17.973 27.5165 17.919C27.4625 17.865 27.4265 17.775 27.4085 17.649L26.4905 9.144L23.4305 17.397C23.3825 17.535 23.3315 17.625 23.2775 17.667C23.2295 17.709 23.1575 17.73 23.0615 17.73H21.5495C21.4535 17.73 21.3785 17.709 21.3245 17.667C21.2765 17.625 21.2285 17.535 21.1805 17.397L18.1745 9.135L17.2295 17.64C17.2175 17.766 17.1845 17.859 17.1305 17.919C17.0765 17.973 16.9895 18 16.8695 18ZM33.8846 18H32.1116C31.8176 18 31.6706 17.868 31.6706 17.604V5.031C31.6706 4.923 31.7156 4.83 31.8056 4.752C31.9016 4.674 32.0036 4.635 32.1116 4.635H33.9296C34.1216 4.635 34.2536 4.728 34.3256 4.914V13.428L40.2386 4.914C40.2866 4.83 40.3616 4.764 40.4636 4.716C40.5656 4.662 40.6646 4.635 40.7606 4.635H42.8756C42.9956 4.635 43.0916 4.674 43.1636 4.752C43.2356 4.824 43.2716 4.917 43.2716 5.031V17.604C43.2716 17.868 43.1396 18 42.8756 18H41.0576C40.7756 18 40.6436 17.868 40.6616 17.604V8.703L34.4066 17.703C34.3046 17.823 34.2236 17.904 34.1636 17.946C34.1036 17.982 34.0106 18 33.8846 18ZM51.038 18H49.103C48.869 18 48.752 17.88 48.752 17.64V7.047H45.395C45.161 7.047 45.044 6.927 45.044 6.687V4.986C45.044 4.752 45.161 4.635 45.395 4.635H54.845C55.079 4.635 55.196 4.752 55.196 4.986V6.687C55.196 6.927 55.079 7.047 54.845 7.047H51.389V17.64C51.389 17.88 51.272 18 51.038 18ZM59.3869 18H57.4789C57.2449 18 57.1279 17.877 57.1279 17.631V4.995C57.1279 4.761 57.2449 4.644 57.4789 4.644H62.7169C63.8929 4.644 64.8889 5.082 65.7049 5.958C66.0769 6.36 66.3649 6.822 66.5689 7.344C66.7729 7.86 66.8749 8.394 66.8749 8.946C66.8749 9.486 66.7699 10.014 66.5599 10.53C66.3499 11.04 66.0559 11.493 65.6779 11.889C65.2939 12.303 64.8409 12.624 64.3189 12.852C63.7969 13.08 63.2479 13.194 62.6719 13.194H59.7469V17.631C59.7469 17.877 59.6269 18 59.3869 18ZM59.7469 10.917H62.1859C62.7739 10.917 63.2599 10.725 63.6439 10.341C64.0159 9.969 64.2019 9.501 64.2019 8.937C64.2019 8.373 64.0159 7.899 63.6439 7.515C63.2539 7.125 62.7679 6.93 62.1859 6.93H59.7469V10.917ZM70.992 18H69.219C68.925 18 68.778 17.868 68.778 17.604V5.031C68.778 4.923 68.823 4.83 68.913 4.752C69.009 4.674 69.111 4.635 69.219 4.635H71.037C71.229 4.635 71.361 4.728 71.433 4.914V13.428L77.346 4.914C77.394 4.83 77.469 4.764 77.571 4.716C77.673 4.662 77.772 4.635 77.868 4.635H79.983C80.103 4.635 80.199 4.674 80.271 4.752C80.343 4.824 80.379 4.917 80.379 5.031V17.604C80.379 17.868 80.247 18 79.983 18H78.165C77.883 18 77.751 17.868 77.769 17.604V8.703L71.514 17.703C71.412 17.823 71.331 17.904 71.271 17.946C71.211 17.982 71.118 18 70.992 18ZM89.2344 3.06C88.5864 3.054 88.0284 2.826 87.5604 2.376C87.1044 1.956 86.8764 1.461 86.8764 0.890999C86.8764 0.788999 86.9094 0.707999 86.9754 0.647999C87.0474 0.581999 87.1314 0.548999 87.2274 0.548999H88.1724C88.2564 0.548999 88.3254 0.575999 88.3794 0.629999C88.4334 0.683999 88.4604 0.749999 88.4604 0.827999C88.4604 1.02 88.5324 1.179 88.6764 1.305C88.8204 1.431 89.0184 1.494 89.2704 1.494C89.4924 1.494 89.6754 1.434 89.8194 1.314C89.9634 1.188 90.0354 1.038 90.0354 0.864C90.0354 0.653999 90.1254 0.548999 90.3054 0.548999H91.2234C91.3374 0.548999 91.4334 0.581999 91.5114 0.647999C91.5894 0.707999 91.6284 0.788999 91.6284 0.890999C91.6284 1.467 91.3974 1.968 90.9354 2.394C90.4614 2.826 89.8944 3.048 89.2344 3.06ZM85.4454 18H83.6724C83.3784 18 83.2314 17.868 83.2314 17.604V5.031C83.2314 4.923 83.2764 4.83 83.3664 4.752C83.4624 4.674 83.5644 4.635 83.6724 4.635H85.4904C85.6824 4.635 85.8144 4.728 85.8864 4.914V13.428L91.7994 4.914C91.8474 4.83 91.9224 4.764 92.0244 4.716C92.1264 4.662 92.2254 4.635 92.3214 4.635H94.4364C94.5564 4.635 94.6524 4.674 94.7244 4.752C94.7964 4.824 94.8324 4.917 94.8324 5.031V17.604C94.8324 17.868 94.7004 18 94.4364 18H92.6184C92.3364 18 92.2044 17.868 92.2224 17.604V8.703L85.9674 17.703C85.8654 17.823 85.7844 17.904 85.7244 17.946C85.6644 17.982 85.5714 18 85.4454 18ZM3.591 36H1.827C1.719 36 1.626 35.967 1.548 35.901C1.476 35.829 1.44 35.739 1.44 35.631V23.004C1.44 22.758 1.554 22.635 1.782 22.635H11.529C11.625 22.635 11.706 22.668 11.772 22.734C11.844 22.8 11.88 22.887 11.88 22.995V35.622C11.88 35.736 11.844 35.829 11.772 35.901C11.7 35.967 11.604 36 11.484 36H9.729C9.615 36 9.519 35.964 9.441 35.892C9.369 35.82 9.333 35.727 9.333 35.613V25.011H3.996V35.622C3.996 35.73 3.957 35.82 3.879 35.892C3.801 35.964 3.705 36 3.591 36ZM16.3943 36H14.6213C14.3273 36 14.1803 35.868 14.1803 35.604V23.031C14.1803 22.923 14.2253 22.83 14.3153 22.752C14.4113 22.674 14.5133 22.635 14.6213 22.635H16.4393C16.6313 22.635 16.7633 22.728 16.8353 22.914V31.428L22.7483 22.914C22.7963 22.83 22.8713 22.764 22.9733 22.716C23.0753 22.662 23.1743 22.635 23.2703 22.635H25.3853C25.5053 22.635 25.6013 22.674 25.6733 22.752C25.7453 22.824 25.7813 22.917 25.7813 23.031V35.604C25.7813 35.868 25.6493 36 25.3853 36H23.5673C23.2853 36 23.1533 35.868 23.1713 35.604V26.703L16.9163 35.703C16.8143 35.823 16.7333 35.904 16.6733 35.946C16.6133 35.982 16.5203 36 16.3943 36ZM34.8798 36.189C33.6318 36.189 32.4708 35.874 31.3968 35.244C30.3648 34.65 29.5368 33.828 28.9128 32.778C28.2828 31.71 27.9678 30.549 27.9678 29.295C27.9678 28.047 28.2828 26.889 28.9128 25.821C29.5488 24.771 30.3768 23.955 31.3968 23.373C32.4648 22.755 33.6258 22.446 34.8798 22.446C36.3678 22.446 37.6758 22.86 38.8038 23.688C38.9058 23.772 38.9568 23.868 38.9568 23.976C38.9568 24.036 38.9418 24.09 38.9118 24.138L37.9578 25.749C37.8978 25.827 37.8228 25.866 37.7328 25.866C37.6488 25.866 37.5558 25.833 37.4538 25.767C36.9738 25.479 36.5628 25.275 36.2208 25.155C35.8068 25.011 35.3598 24.939 34.8798 24.939C33.6678 24.939 32.6568 25.359 31.8468 26.199C31.0368 27.045 30.6318 28.077 30.6318 29.295C30.6318 30.507 31.0368 31.548 31.8468 32.418C32.6808 33.288 33.6918 33.723 34.8798 33.723C35.8098 33.723 36.6528 33.444 37.4088 32.886C37.5288 32.79 37.6368 32.742 37.7328 32.742C37.8348 32.742 37.9158 32.787 37.9758 32.877L38.8848 34.416C38.9568 34.5 38.9928 34.575 38.9928 34.641C38.9928 34.737 38.9238 34.836 38.7858 34.938C37.6518 35.772 36.3498 36.189 34.8798 36.189ZM42.1712 36H40.2002C40.0082 36 39.9122 35.928 39.9122 35.784C39.9122 35.748 39.9272 35.691 39.9572 35.613L45.0422 22.977C45.1442 22.749 45.2942 22.635 45.4922 22.635H46.9952C47.2112 22.635 47.3642 22.749 47.4542 22.977L52.5302 35.613C52.5542 35.661 52.5662 35.715 52.5662 35.775C52.5662 35.925 52.4702 36 52.2782 36H50.3072C50.0852 36 49.9382 35.892 49.8662 35.676L48.9932 33.516H43.4762L42.6212 35.667C42.5312 35.889 42.3812 36 42.1712 36ZM44.3222 31.194H48.1382L46.2482 26.091L44.3222 31.194ZM56.6096 36H54.7016C54.4676 36 54.3506 35.877 54.3506 35.631V22.995C54.3506 22.761 54.4676 22.644 54.7016 22.644H59.9396C61.1156 22.644 62.1116 23.082 62.9276 23.958C63.2996 24.36 63.5876 24.822 63.7916 25.344C63.9956 25.86 64.0976 26.394 64.0976 26.946C64.0976 27.486 63.9926 28.014 63.7826 28.53C63.5726 29.04 63.2786 29.493 62.9006 29.889C62.5166 30.303 62.0636 30.624 61.5416 30.852C61.0196 31.08 60.4706 31.194 59.8946 31.194H56.9696V35.631C56.9696 35.877 56.8496 36 56.6096 36ZM56.9696 28.917H59.4086C59.9966 28.917 60.4826 28.725 60.8666 28.341C61.2386 27.969 61.4246 27.501 61.4246 26.937C61.4246 26.373 61.2386 25.899 60.8666 25.515C60.4766 25.125 59.9906 24.93 59.4086 24.93H56.9696V28.917ZM66.5497 36.459C66.2497 36.459 66.0997 36.351 66.0997 36.135V34.452C66.0997 34.356 66.1327 34.275 66.1987 34.209C66.2707 34.143 66.3577 34.11 66.4597 34.11C66.9457 34.11 67.3357 33.963 67.6297 33.669C67.8577 33.441 68.0677 33.069 68.2597 32.553L68.6017 31.653L65.1097 23.184C65.0737 23.088 65.0557 23.007 65.0557 22.941C65.0557 22.737 65.1787 22.635 65.4247 22.635H67.3147C67.5427 22.635 67.6897 22.743 67.7557 22.959L69.7717 28.962L71.7157 22.959C71.7817 22.743 71.9317 22.635 72.1657 22.635H74.0647C74.2567 22.635 74.3767 22.689 74.4247 22.797C74.4367 22.857 74.4427 22.899 74.4427 22.923C74.4427 22.989 74.4277 23.067 74.3977 23.157L70.4107 33.39C69.9907 34.53 69.4027 35.355 68.6467 35.865C68.0587 36.261 67.3597 36.459 66.5497 36.459ZM78.6195 36H76.6305C76.5465 36 76.4745 35.982 76.4145 35.946C76.3185 35.892 76.2705 35.805 76.2705 35.685V22.986C76.2705 22.752 76.3905 22.635 76.6305 22.635H78.6105C78.8205 22.635 78.9255 22.755 78.9255 22.995V28.287C79.2015 28.281 79.5225 28.077 79.8885 27.675C80.1285 27.417 80.3565 27.123 80.5725 26.793L80.6805 26.649L82.2195 24.507C82.7175 23.829 83.3475 23.328 84.1095 23.004C84.7035 22.746 85.3425 22.617 86.0265 22.617C86.0985 22.617 86.1645 22.638 86.2245 22.68C86.3025 22.734 86.3415 22.821 86.3415 22.941V24.651C86.3415 24.873 86.2305 24.984 86.0085 24.984C85.6365 24.984 85.2675 25.122 84.9015 25.398C84.5775 25.644 84.2775 25.956 84.0015 26.334L82.0485 28.962L87.4035 35.577C87.4515 35.643 87.4755 35.703 87.4755 35.757C87.4755 35.793 87.4665 35.829 87.4485 35.865C87.4005 35.955 87.3255 36 87.2235 36H84.8115C84.6195 36 84.4485 35.907 84.2985 35.721L80.2935 30.654C80.0595 30.876 79.7835 31.032 79.4655 31.122C79.2795 31.176 79.0995 31.203 78.9255 31.203V35.685C78.9255 35.763 78.8955 35.835 78.8355 35.901C78.7815 35.967 78.7095 36 78.6195 36Z" fill="white"/>
   </symbol>
   
   <symbol viewBox="0 0 26 25" fill="none" id="instagram" >
      <g clip-path="url(#clip0_70_82)">
      <path d="M8.80471 0C11.5848 0 14.3649 0 17.1449 0C17.3808 0.0166295 17.6163 0.0415737 17.8527 0.0489103C18.7587 0.0767891 19.6616 0.135971 20.5446 0.347263C22.6827 0.858864 24.274 2.03222 25.2131 3.96271C25.8118 5.19329 25.9845 6.51387 25.9891 7.85499C25.9993 10.8723 26.0105 13.89 25.9809 16.9073C25.9728 17.7554 25.9071 18.6197 25.7226 19.4467C25.0852 22.3021 23.2477 24.058 20.2746 24.7016C19.0012 24.9775 17.7008 24.9702 16.4071 24.9829C14.1447 25.0054 11.8824 25.0044 9.61998 24.9829C8.3181 24.9707 7.00857 24.9775 5.72809 24.6958C2.79209 24.0487 0.979644 22.3134 0.310103 19.4912C0.0262866 18.2939 0.0288343 17.0707 0.0145671 15.8533C-0.00683376 14.0558 0.000809404 12.2584 0.00692393 10.4609C0.0120194 8.87624 -0.0261964 7.28714 0.26832 5.71908C0.562327 4.15248 1.28792 2.80647 2.56382 1.75637C3.8871 0.666647 5.46159 0.226944 7.15889 0.099777C7.70715 0.0586923 8.25593 0.0327699 8.80471 0ZM13.0079 22.7805C13.0079 22.7658 13.0085 22.7511 13.009 22.7364C13.9582 22.7364 14.9075 22.7545 15.8563 22.732C17.1587 22.7012 18.4697 22.754 19.7553 22.5017C21.6111 22.1373 22.8365 21.097 23.3553 19.3249C23.5937 18.5106 23.6381 17.6723 23.6467 16.8379C23.6727 14.3244 23.6768 11.8109 23.6686 9.29735C23.6651 8.22573 23.6717 7.14873 23.4521 6.09031C23.0709 4.25422 21.9708 3.05249 20.0554 2.57953C18.9691 2.3115 17.8557 2.31395 16.749 2.29976C14.7322 2.27384 12.715 2.28264 10.6982 2.28851C9.27553 2.29242 7.84728 2.25134 6.44043 2.49296C4.48531 2.82897 3.19259 3.89081 2.68254 5.77141C2.44102 6.66207 2.41248 7.57425 2.40484 8.48153C2.38293 11.1657 2.38191 13.8504 2.40637 16.5346C2.4135 17.3196 2.48433 18.111 2.60968 18.8872C2.80993 20.129 3.43717 21.1488 4.55155 21.8482C5.41879 22.3926 6.40476 22.6029 7.41824 22.6415C9.28063 22.7125 11.1445 22.7359 13.0085 22.7795L13.0079 22.7805Z" fill="white"/>
      <path d="M19.7234 12.5059C19.7138 16.0504 16.6845 18.9464 13.0026 18.9307C9.3211 18.9151 6.31632 16.0191 6.32142 12.4917C6.32651 8.95351 9.3741 6.04091 13.0428 6.06732C16.738 6.09373 19.7331 8.9809 19.7234 12.5059ZM13.0097 16.6515C15.4122 16.6539 17.3464 14.812 17.351 12.5176C17.3556 10.2125 15.4351 8.34996 13.0479 8.34458C10.6322 8.3392 8.69895 10.1821 8.6964 12.4927C8.69386 14.7973 10.6143 16.6491 13.0097 16.6515Z" fill="white"/>
      <path d="M19.9471 7.32187C19.084 7.31796 18.4114 6.64789 18.4165 5.79734C18.4211 4.98298 19.1278 4.31438 19.9792 4.31878C20.8424 4.32318 21.5466 5.00254 21.5446 5.82766C21.5425 6.66696 20.8378 7.32627 19.9471 7.32187Z" fill="white"/>
      </g>
   </symbol>

   <symbol viewBox="0 0 37 60" fill="none" id="play" >
      <path d="M1.55345 57.3271V2.38367L35.3207 29.8554L1.55345 57.3271Z" stroke="white" stroke-width="2"/>
   </symbol>

   <symbol viewBox="0 0 182 182" fill="none" id="play_border" >
      <g clip-path="url(#clip0_1_7)">
      <path d="M58.7214 5.90987L61.4004 12.1854L59.6658 12.9232L57.3082 7.40128L58.4223 7.85605L53.6804 9.8758L54.1247 8.75669L56.4822 14.2787L54.7476 15.0166L52.0686 8.74108L58.7214 5.90987Z" fill="white"/>
      <path d="M64.0415 4.15096C64.584 3.97707 65.084 3.91911 65.5395 3.97707C65.9949 4.03503 66.3811 4.2 66.6981 4.47198C67.0152 4.74395 67.2451 5.1051 67.3902 5.55542C67.5331 6.00128 67.5532 6.42484 67.4527 6.82835C67.3523 7.23185 67.1335 7.59077 66.7964 7.90287C66.4593 8.21497 66.0195 8.45573 65.4747 8.62962L62.6551 9.53026L62.1952 8.09236L64.901 7.22739C65.189 7.13599 65.3921 6.99331 65.5104 6.79937C65.6265 6.60542 65.6466 6.38472 65.5663 6.13726C65.4859 5.88312 65.3408 5.71147 65.1332 5.6223C64.9255 5.53312 64.6777 5.53312 64.3897 5.62675L61.838 6.44045L62.3783 5.35032L64.2647 11.2424L62.4698 11.8153L60.3891 5.31688L64.0415 4.15096Z" fill="white"/>
      <path d="M73.0942 8.96847C72.3039 9.14013 71.5806 9.14459 70.922 8.98408C70.2634 8.82357 69.712 8.51815 69.2677 8.06784C68.8257 7.61752 68.5288 7.04682 68.377 6.35351C68.2252 5.66019 68.2586 5.01816 68.473 4.42516C68.6895 3.83217 69.0623 3.32612 69.5959 2.90478C70.1295 2.48567 70.7903 2.18917 71.5784 2.01752C72.3731 1.84363 73.0987 1.83917 73.7551 1.99968C74.4114 2.16019 74.9628 2.46561 75.4093 2.91593C75.8558 3.36402 76.1528 3.93695 76.3046 4.63026C76.4564 5.32357 76.4229 5.96784 76.2041 6.56083C75.9853 7.15382 75.6103 7.6621 75.0812 8.08121C74.5521 8.50032 73.889 8.79682 73.0942 8.96847ZM72.7348 7.32325C73.1679 7.22962 73.5251 7.07357 73.8086 6.85733C74.0922 6.64109 74.2864 6.37803 74.3958 6.06816C74.5052 5.75828 74.5186 5.41497 74.436 5.03599C74.3534 4.65701 74.1971 4.34937 73.9694 4.11306C73.7417 3.87675 73.4537 3.71847 73.1054 3.64045C72.7594 3.56019 72.3687 3.56688 71.9356 3.66274C71.5092 3.75637 71.1542 3.91019 70.8707 4.12644C70.5894 4.34268 70.3907 4.60573 70.2791 4.91561C70.1674 5.22548 70.1518 5.57102 70.2344 5.95C70.317 6.32898 70.4733 6.63663 70.7055 6.8707C70.9376 7.10478 71.2256 7.26306 71.5739 7.34331C71.9199 7.42357 72.3084 7.41688 72.7348 7.32325Z" fill="white"/>
      <path d="M85.0582 4.15987C85.0582 4.76401 84.9153 5.31019 84.6206 5.79841C84.326 6.28662 83.9174 6.68567 83.3861 6.99554C82.857 7.30541 82.2296 7.50159 81.5041 7.58407C80.7138 7.67325 80.0061 7.60414 79.381 7.37675C78.7559 7.14936 78.2491 6.78821 77.8606 6.29554C77.4722 5.80286 77.2378 5.20318 77.1552 4.49872C77.0748 3.79427 77.1686 3.15669 77.4365 2.59044C77.7044 2.0242 78.1174 1.55828 78.6755 1.1949C79.2336 0.833756 79.9078 0.606367 80.6981 0.517195C81.4215 0.434711 82.0778 0.485985 82.6627 0.668788C83.2477 0.85159 83.7388 1.14809 84.134 1.55828C84.5291 1.96847 84.7948 2.46783 84.9287 3.05637L83.0467 3.27038C82.953 2.98726 82.8079 2.75541 82.6092 2.57484C82.4105 2.39427 82.1649 2.26274 81.8724 2.18694C81.58 2.11114 81.2496 2.09331 80.8812 2.13567C80.4593 2.18471 80.1021 2.30286 79.8118 2.49013C79.5216 2.67962 79.3118 2.92484 79.18 3.23025C79.0506 3.53567 79.0081 3.88567 79.0528 4.28471C79.0974 4.68153 79.218 5.01592 79.4145 5.28344C79.6109 5.55095 79.8699 5.7449 80.1958 5.86305C80.5218 5.98121 80.8946 6.01688 81.3165 5.97006C81.6849 5.9277 82.0042 5.84076 82.2721 5.70477C82.54 5.57102 82.752 5.39044 82.9039 5.16528C83.0557 4.94013 83.145 4.67707 83.1718 4.37611L85.0538 4.1621L85.0582 4.15987Z" fill="white"/>
      <path d="M96.214 0.16051L96.1024 6.98217L94.3074 6.95319L94.4079 0.804777L94.8075 0.856051L92.0682 6.91529L90.155 6.88408L87.6032 0.757962L88.014 0.720064L87.9136 6.85064L86.1186 6.82166L86.2303 0L89.1437 0.0468153L91.499 5.94331L90.7712 5.93217L93.2984 0.113694L96.2118 0.16051H96.214Z" fill="white"/>
      <path d="M100.909 7.61751C100.107 7.52388 99.4199 7.29427 98.8484 6.92866C98.2768 6.56306 97.8549 6.0949 97.5825 5.52643C97.3102 4.95796 97.2142 4.32038 97.2968 3.61592C97.3794 2.91146 97.6182 2.31401 98.0156 1.82357C98.413 1.33312 98.931 0.974202 99.5717 0.751272C100.212 0.526113 100.934 0.461463 101.735 0.555094C102.543 0.648724 103.231 0.878342 103.8 1.24395C104.369 1.60955 104.791 2.07771 105.066 2.64618C105.34 3.21465 105.439 3.85223 105.356 4.55669C105.273 5.26115 105.032 5.8586 104.633 6.34904C104.233 6.83949 103.715 7.19841 103.077 7.42134C102.438 7.6465 101.717 7.71114 100.909 7.61751ZM101.105 5.94554C101.545 5.99681 101.934 5.9656 102.271 5.85191C102.608 5.73821 102.878 5.55318 103.083 5.29681C103.289 5.04044 103.412 4.71943 103.458 4.33376C103.503 3.94809 103.458 3.607 103.318 3.31051C103.179 3.01401 102.958 2.77102 102.655 2.58376C102.353 2.3965 101.981 2.27611 101.541 2.22484C101.105 2.17357 100.721 2.20478 100.384 2.31847C100.047 2.43216 99.7748 2.6172 99.5672 2.87357C99.3596 3.12993 99.2346 3.45095 99.1877 3.83662C99.143 4.22229 99.1922 4.56337 99.335 4.8621C99.4779 5.1586 99.6989 5.40159 100.003 5.58885C100.304 5.77611 100.672 5.8965 101.108 5.94554H101.105Z" fill="white"/>
      <path d="M106.45 1.30414L113.402 2.76879L113.056 4.40732L106.104 2.94267L106.45 1.30414ZM108.828 2.65064L110.681 3.04076L109.442 8.90605L107.589 8.51592L108.828 2.65064Z" fill="white"/>
      <path d="M118.296 4.21783C118.843 4.3828 119.285 4.61911 119.626 4.92675C119.968 5.23439 120.191 5.58885 120.298 5.99012C120.403 6.39363 120.388 6.82165 120.251 7.2742C120.115 7.72006 119.892 8.08121 119.579 8.35764C119.267 8.63407 118.883 8.8035 118.43 8.86815C117.976 8.9328 117.474 8.88152 116.929 8.71656L114.096 7.85605L114.536 6.41146L117.255 7.2363C117.546 7.32547 117.793 7.32325 118.001 7.22961C118.206 7.13598 118.347 6.96656 118.423 6.71688C118.501 6.46051 118.479 6.23758 118.36 6.04586C118.24 5.85414 118.037 5.71369 117.746 5.62675L115.184 4.84872L116.248 4.26019L114.447 10.1767L112.643 9.62834L114.63 3.10095L118.298 4.2156L118.296 4.21783Z" fill="white"/>
      <path d="M122.808 9.40764L121.374 11.7841L120.981 10.7073L125.835 12.6468L125.266 14.0646L119.372 11.7083L121.124 8.73439L121.912 5.37484L127.764 7.71337L127.194 9.13121L122.383 7.20732L123.413 6.69681L122.808 9.40318V9.40764ZM126.511 10.1545L126.002 11.4207L121.361 9.56369L121.868 8.29745L126.509 10.1545H126.511Z" fill="white"/>
      <path d="M128.717 8.12357L135.064 11.3092L134.312 12.8051L127.965 9.61943L128.717 8.12357ZM130.673 10.0318L132.365 10.8812L129.668 16.236L127.976 15.3866L130.673 10.0318Z" fill="white"/>
      <path d="M132.575 17.7519L136.16 11.9446L137.765 12.9322L134.515 18.1955L134.238 17.0318L136.502 18.4252C136.765 18.5879 137.013 18.6481 137.243 18.6035C137.473 18.5589 137.658 18.4252 137.799 18.1978C137.942 17.9659 137.98 17.7408 137.913 17.5201C137.846 17.2994 137.68 17.1099 137.415 16.9471L135.01 15.4669L135.794 14.1962L138.299 15.7389C138.79 16.042 139.161 16.3854 139.411 16.771C139.661 17.1567 139.788 17.558 139.792 17.9726C139.797 18.3873 139.674 18.7975 139.424 19.1987C139.176 19.6022 138.864 19.8943 138.489 20.0815C138.114 20.2666 137.698 20.3334 137.243 20.2799C136.787 20.2264 136.314 20.0503 135.823 19.7471L132.575 17.7475V17.7519Z" fill="white"/>
      <path d="M146.041 22.944L146.383 22.7612C146.791 23.0955 147.084 23.4277 147.262 23.7576C147.441 24.0854 147.515 24.4064 147.486 24.7185C147.457 25.0306 147.334 25.3226 147.122 25.5946C146.894 25.8866 146.622 26.0917 146.311 26.2143C146.001 26.3369 145.659 26.3592 145.291 26.2812C144.923 26.2032 144.541 26.0115 144.144 25.6994L140.174 22.5873L142.755 20.1596L144.391 17.2213L148.218 20.2198C148.716 20.6099 149.01 21.029 149.106 21.4771C149.202 21.9252 149.088 22.3554 148.765 22.7656C148.588 22.9908 148.367 23.1624 148.102 23.285C147.836 23.4076 147.53 23.4478 147.189 23.4076C146.847 23.3675 146.463 23.2115 146.043 22.944H146.041ZM141.911 23.3965L141.884 22.2529L144.557 24.3484C144.771 24.5178 144.981 24.5959 145.182 24.5847C145.383 24.5736 145.557 24.4755 145.704 24.2882C145.849 24.1032 145.903 23.9026 145.863 23.6885C145.822 23.4745 145.675 23.2694 145.423 23.071L143.217 21.3411L144.016 20.3245L146.023 21.8962C146.195 22.0299 146.38 22.0924 146.577 22.0812C146.776 22.0701 146.943 21.9764 147.081 21.8003C147.193 21.6576 147.236 21.4994 147.209 21.3277C147.182 21.1561 147.075 20.9978 146.889 20.8506L144.483 18.9647L145.595 18.715L144.177 21.2698L141.915 23.3943L141.911 23.3965Z" fill="white"/>
      <path d="M146.528 27.6099L151.254 22.6853L152.596 23.9694L148.557 28.1783L148.265 27.7347L155.018 26.2857L156.8 27.9911L152.073 32.9156L150.725 31.6248L154.839 27.3357L155.139 27.786L148.258 29.264L146.528 27.6099Z" fill="white"/>
      <path d="M151.473 34.2175L153.801 32.2624L154.75 33.3904L155.123 33.8608L158.17 37.4812L158.49 37.8312L159.767 39.3494L157.438 41.3044L156.302 39.9535L157.355 39.0707L153.663 34.6834L152.609 35.5662L151.473 34.2153V34.2175ZM158.67 30.0309L162.966 35.1337L158.141 39.1844L156.922 37.7353L161.142 34.1952L161.037 35.399L158.054 31.8544L159.039 32.0506C158.856 32.2669 158.668 32.463 158.474 32.6369C158.28 32.8108 158.092 32.9758 157.911 33.1274C157.367 33.5844 156.869 33.921 156.418 34.1373C155.965 34.3535 155.565 34.4494 155.217 34.4204C154.868 34.3936 154.574 34.2376 154.335 33.9544L154.328 32.9267C154.703 32.9267 155.116 32.8153 155.569 32.5857C156.023 32.356 156.527 32.006 157.085 31.5379C157.34 31.3239 157.601 31.0898 157.864 30.8379C158.128 30.586 158.396 30.3162 158.673 30.0309H158.67Z" fill="white"/>
      <path d="M162.899 40.8854L160.385 42.0647L160.66 40.9522L163.615 45.2592L162.352 46.122L158.764 40.892L161.876 39.3917L164.401 37.0354L167.964 42.2274L166.703 43.0901L163.774 38.821L164.912 38.9682L162.903 40.8831L162.899 40.8854ZM165.562 43.5605L164.435 44.3319L161.608 40.2121L162.736 39.4408L165.562 43.5605Z" fill="white"/>
      <path d="M164.517 50.1637C164.124 49.4592 163.908 48.7682 163.872 48.0927C163.834 47.415 163.968 46.7997 164.269 46.2468C164.573 45.6939 165.033 45.2436 165.654 44.8981C166.274 44.5525 166.899 44.3965 167.531 44.4322C168.163 44.4656 168.757 44.6774 169.313 45.0653C169.869 45.4532 170.344 45.9994 170.737 46.7038C171.132 47.4127 171.349 48.106 171.384 48.7793C171.42 49.4525 171.288 50.0701 170.987 50.6252C170.686 51.1825 170.226 51.6328 169.605 51.9783C168.985 52.3239 168.357 52.4777 167.725 52.442C167.094 52.4041 166.5 52.1946 165.944 51.8089C165.388 51.4232 164.912 50.8771 164.517 50.1659V50.1637ZM165.989 49.3455C166.205 49.7312 166.457 50.0299 166.745 50.235C167.036 50.4424 167.344 50.5538 167.672 50.5672C168 50.5828 168.335 50.4959 168.674 50.3064C169.014 50.1169 169.264 49.8806 169.422 49.593C169.581 49.3054 169.65 48.9866 169.625 48.6322C169.601 48.2777 169.48 47.9076 169.266 47.5197C169.054 47.1385 168.801 46.8443 168.513 46.6369C168.223 46.4296 167.915 46.3182 167.585 46.3003C167.254 46.2825 166.919 46.3672 166.58 46.5567C166.241 46.7462 165.991 46.9847 165.834 47.2745C165.676 47.5643 165.609 47.8853 165.634 48.2398C165.658 48.5943 165.776 48.9621 165.989 49.3433V49.3455Z" fill="white"/>
      <path d="M170.404 52.6605L171.42 54.8274L170.092 55.4471L169.076 53.2803L170.404 52.6605Z" fill="white"/>
      <path d="M176.095 58.4812C176.303 59.0118 176.394 59.5067 176.365 59.9637C176.336 60.4207 176.196 60.8175 175.945 61.1497C175.695 61.4818 175.349 61.736 174.907 61.9076C174.472 62.0793 174.05 62.1261 173.639 62.0526C173.229 61.979 172.858 61.785 172.523 61.4685C172.188 61.1519 171.92 60.7306 171.71 60.2L170.63 57.449L172.036 56.8984L173.074 59.5401C173.186 59.8232 173.34 60.015 173.541 60.1197C173.742 60.2223 173.963 60.2268 174.206 60.1331C174.454 60.035 174.617 59.8812 174.693 59.6694C174.769 59.4576 174.751 59.2102 174.642 58.9271L173.664 56.4369L174.787 56.9051L169.02 59.1656L168.33 57.4134L174.689 54.921L176.091 58.4857L176.095 58.4812Z" fill="white"/>
      <path d="M170.971 64.1659L177.539 62.2933L178.048 64.0767L172.434 65.6774L172.405 65.1468L178.968 67.2959L179.645 69.6656L173.077 71.5382L172.563 69.7458L178.283 68.1162L178.314 68.6557L171.626 66.4666L170.969 64.1659H170.971Z" fill="white"/>
      <path d="M180.256 72.5748L181.404 79.1713L174.673 80.3395L174.349 78.4758L180.272 77.4481L179.576 78.4357L178.785 73.9013L179.54 74.5745C179.154 74.6904 178.781 74.7885 178.421 74.871C178.062 74.9513 177.723 75.0204 177.399 75.0761C176.537 75.2255 175.823 75.2701 175.253 75.2076C174.684 75.1452 174.247 74.9691 173.936 74.6793C173.626 74.3873 173.425 73.9771 173.333 73.4443C173.293 73.2124 173.278 72.9784 173.287 72.7465C173.296 72.5147 173.331 72.2962 173.396 72.0955L174.939 71.828C174.883 72.1089 174.874 72.3586 174.912 72.5815C174.979 72.9694 175.204 73.2191 175.588 73.3283C175.97 73.4376 176.564 73.422 177.365 73.2838C177.754 73.2169 178.189 73.1233 178.667 73.0073C179.147 72.8892 179.676 72.7465 180.256 72.5793V72.5748Z" fill="white"/>
      <path d="M174.869 84.6599C174.816 83.9398 174.869 83.3022 175.028 82.7471C175.189 82.1898 175.441 81.7506 175.789 81.4229C176.135 81.0975 176.557 80.9035 177.053 80.8411L177.193 82.7271C176.87 82.7939 176.633 82.9812 176.481 83.2911C176.332 83.601 176.276 84.0201 176.314 84.5529C176.352 85.0545 176.448 85.4357 176.604 85.6987C176.76 85.9596 176.975 86.0822 177.247 86.0621C177.484 86.0443 177.647 85.915 177.738 85.6742C177.83 85.4334 177.856 85.0478 177.816 84.515L177.725 83.2733L178.968 83.1818L179.058 84.3968C179.08 84.7111 179.129 84.9653 179.2 85.1615C179.272 85.3576 179.368 85.5003 179.484 85.5917C179.6 85.6831 179.732 85.7233 179.877 85.7121C180.04 85.701 180.174 85.6341 180.279 85.5137C180.381 85.3933 180.455 85.2261 180.498 85.0143C180.54 84.8026 180.549 84.5462 180.527 84.2497C180.491 83.7592 180.379 83.3825 180.192 83.1172C180.004 82.8519 179.754 82.7048 179.442 82.6803L179.303 80.8121C179.754 80.8143 180.172 80.9436 180.556 81.1978C180.94 81.4519 181.259 81.8331 181.513 82.3436C181.768 82.8541 181.922 83.4828 181.978 84.2341C182.025 84.8806 181.987 85.4513 181.864 85.9484C181.741 86.4455 181.542 86.8379 181.277 87.1277C181.009 87.4175 180.685 87.578 180.303 87.6048C179.995 87.6271 179.707 87.5557 179.437 87.3908C179.169 87.2258 178.944 86.9494 178.763 86.5659C178.582 86.1803 178.468 85.6742 178.421 85.0455L178.611 85.0322C178.685 85.6229 178.685 86.1357 178.607 86.5704C178.528 87.0051 178.379 87.3462 178.153 87.5936C177.928 87.8411 177.624 87.9793 177.243 88.0083C176.832 88.0395 176.457 87.9303 176.117 87.6806C175.78 87.4331 175.499 87.0541 175.28 86.5481C175.059 86.042 174.923 85.4134 174.867 84.6643L174.869 84.6599Z" fill="white"/>
      <path d="M177.341 92.4424C177.345 92.1994 177.406 91.9787 177.524 91.7825C177.642 91.5841 177.803 91.4303 178.006 91.3166C178.209 91.2029 178.43 91.1516 178.674 91.1561C178.921 91.1605 179.145 91.2207 179.341 91.3411C179.538 91.4592 179.689 91.6198 179.803 91.8226C179.915 92.0255 179.968 92.2462 179.964 92.4892C179.96 92.7389 179.899 92.9596 179.779 93.1557C179.658 93.3519 179.502 93.5035 179.301 93.6172C179.102 93.7287 178.877 93.7822 178.629 93.7777C178.386 93.7733 178.165 93.7131 177.968 93.5949C177.769 93.4768 177.615 93.3163 177.502 93.1178C177.39 92.9194 177.336 92.6943 177.341 92.4468V92.4424Z" fill="white"/>
      <path d="M181.091 104.886L174.302 104.119L174.514 102.249L180.489 102.925L179.542 103.669L180.122 98.5529L180.877 99.4892L174.903 98.8137L175.115 96.9433L181.904 97.7102L181.091 104.886Z" fill="white"/>
      <path d="M180.002 110.373C179.886 110.93 179.689 111.394 179.415 111.759C179.14 112.127 178.805 112.381 178.412 112.522C178.019 112.662 177.593 112.684 177.129 112.589C176.671 112.493 176.292 112.303 175.988 112.016C175.684 111.73 175.481 111.362 175.376 110.917C175.271 110.471 175.276 109.969 175.394 109.41L175.999 106.516L177.479 106.824L176.899 109.601C176.836 109.898 176.861 110.145 176.972 110.341C177.084 110.538 177.267 110.662 177.522 110.716C177.783 110.769 178.004 110.729 178.185 110.593C178.366 110.457 178.486 110.241 178.549 109.945L179.096 107.327L179.779 108.333L173.715 107.069L174.099 105.225L180.788 106.618L180.004 110.366L180.002 110.373Z" fill="white"/>
      <path d="M171.344 115.863C171.583 115.092 171.936 114.461 172.4 113.966C172.865 113.471 173.403 113.144 174.012 112.981C174.622 112.818 175.267 112.84 175.945 113.052C176.624 113.262 177.169 113.607 177.58 114.087C177.99 114.566 178.247 115.141 178.35 115.812C178.453 116.483 178.386 117.203 178.147 117.972C177.906 118.748 177.553 119.381 177.088 119.874C176.624 120.364 176.086 120.694 175.477 120.859C174.865 121.026 174.22 121.004 173.541 120.792C172.862 120.583 172.318 120.235 171.909 119.753C171.501 119.27 171.242 118.697 171.139 118.028C171.034 117.361 171.103 116.639 171.344 115.863ZM172.954 116.363C172.822 116.786 172.782 117.172 172.831 117.524C172.88 117.876 173.014 118.175 173.229 118.423C173.443 118.67 173.738 118.851 174.108 118.967C174.479 119.082 174.825 119.098 175.142 119.016C175.459 118.933 175.74 118.761 175.979 118.498C176.22 118.235 176.405 117.894 176.537 117.471C176.667 117.054 176.707 116.668 176.658 116.318C176.609 115.966 176.477 115.665 176.26 115.415C176.046 115.166 175.753 114.983 175.381 114.867C175.01 114.751 174.664 114.738 174.345 114.822C174.026 114.907 173.746 115.081 173.505 115.344C173.264 115.605 173.079 115.946 172.949 116.363H172.954Z" fill="white"/>
      <path d="M169.636 128.628C169.11 128.332 168.705 127.937 168.424 127.44C168.143 126.945 167.998 126.39 167.989 125.777C167.98 125.164 168.118 124.522 168.404 123.853C168.717 123.122 169.125 122.542 169.632 122.112C170.139 121.682 170.704 121.419 171.324 121.323C171.945 121.227 172.583 121.318 173.237 121.597C173.892 121.876 174.398 122.27 174.762 122.783C175.124 123.296 175.325 123.884 175.367 124.546C175.407 125.209 175.273 125.906 174.961 126.638C174.675 127.306 174.309 127.85 173.86 128.269C173.412 128.689 172.912 128.967 172.36 129.11C171.809 129.25 171.244 129.235 170.663 129.061L171.405 127.32C171.697 127.378 171.972 127.367 172.226 127.284C172.483 127.202 172.715 127.052 172.927 126.836C173.139 126.62 173.316 126.341 173.461 126C173.628 125.61 173.7 125.242 173.679 124.896C173.659 124.551 173.548 124.248 173.347 123.985C173.146 123.722 172.86 123.512 172.492 123.354C172.123 123.198 171.773 123.138 171.445 123.175C171.117 123.213 170.82 123.345 170.554 123.568C170.288 123.791 170.076 124.098 169.909 124.489C169.764 124.83 169.683 125.148 169.668 125.449C169.652 125.748 169.706 126.02 169.826 126.263C169.947 126.506 170.132 126.713 170.382 126.885L169.641 128.626L169.636 128.628Z" fill="white"/>
      <path d="M167.721 140.241L161.785 136.863L162.673 135.307L168.022 138.353L167.783 138.678L163.781 133.366L164.727 131.707L171.333 132.42L171.17 132.799L165.837 129.763L166.725 128.207L172.661 131.584L171.219 134.112L164.91 133.339L165.272 132.706L169.163 137.715L167.721 140.243V140.241Z" fill="white"/>
      <path d="M158.784 140.673C159.262 140.025 159.802 139.541 160.405 139.226C161.006 138.912 161.622 138.778 162.254 138.823C162.883 138.868 163.484 139.102 164.057 139.523C164.629 139.944 165.031 140.448 165.261 141.034C165.491 141.621 165.544 142.249 165.424 142.916C165.301 143.582 165.002 144.24 164.522 144.891C164.04 145.547 163.499 146.028 162.899 146.34C162.298 146.652 161.684 146.786 161.052 146.744C160.421 146.701 159.818 146.469 159.246 146.048C158.675 145.627 158.273 145.123 158.045 144.532C157.818 143.941 157.762 143.315 157.882 142.651C158.003 141.986 158.304 141.326 158.786 140.673H158.784ZM160.142 141.67C159.878 142.026 159.713 142.379 159.644 142.729C159.575 143.076 159.601 143.404 159.724 143.707C159.847 144.011 160.063 144.28 160.376 144.51C160.689 144.739 161.01 144.869 161.336 144.893C161.664 144.92 161.983 144.849 162.296 144.679C162.609 144.51 162.897 144.247 163.16 143.89C163.419 143.538 163.584 143.188 163.651 142.84C163.72 142.492 163.694 142.162 163.573 141.857C163.452 141.549 163.236 141.282 162.923 141.052C162.611 140.823 162.289 140.696 161.959 140.671C161.628 140.647 161.309 140.72 160.994 140.889C160.68 141.059 160.396 141.32 160.137 141.67H160.142Z" fill="white"/>
      <path d="M159.182 150.001L157.925 151.416L153.435 147.439L154.692 146.024L159.184 150.001H159.182ZM161.53 148.603L156.815 153.911L155.56 152.801L160.276 147.493L161.53 148.603Z" fill="white"/>
      <path d="M153.138 157.444C152.725 157.837 152.299 158.104 151.864 158.251C151.428 158.396 151.008 158.416 150.607 158.309C150.205 158.202 149.839 157.977 149.513 157.634C149.191 157.295 148.988 156.923 148.901 156.515C148.816 156.107 148.856 155.69 149.024 155.264C149.191 154.838 149.484 154.428 149.897 154.036L152.044 152L153.085 153.095L151.022 155.048C150.801 155.257 150.68 155.474 150.66 155.699C150.64 155.924 150.718 156.131 150.899 156.318C151.082 156.512 151.288 156.604 151.513 156.595C151.738 156.586 151.962 156.477 152.183 156.269L154.125 154.428L154.112 155.643L149.85 151.155L151.218 149.86L155.92 154.809L153.138 157.444Z" fill="white"/>
      <path d="M146.396 158.795L145.032 156.379L146.164 156.568L142.081 159.827L141.125 158.635L146.084 154.675L147.812 157.663L150.35 160.003L145.427 163.934L144.472 162.741L148.519 159.509L148.457 160.654L146.396 158.795ZM143.92 161.646L143.067 160.581L146.974 157.462L147.827 158.528L143.922 161.646H143.92Z" fill="white"/>
      <path d="M141.982 165.318L140.409 166.37L137.069 161.39L138.643 160.338L141.982 165.318ZM144.608 164.558L138.705 168.506L137.772 167.115L143.675 163.167L144.608 164.558Z" fill="white"/>
      <path d="M134.312 163.174L137.607 169.148L135.955 170.058L132.965 164.64L134.115 164.973L131.787 166.254C131.517 166.404 131.342 166.589 131.266 166.81C131.191 167.03 131.217 167.258 131.347 167.492C131.479 167.73 131.657 167.875 131.883 167.924C132.108 167.973 132.356 167.924 132.626 167.775L135.1 166.415L135.821 167.721L133.244 169.139C132.74 169.418 132.258 169.569 131.798 169.598C131.338 169.625 130.927 169.54 130.563 169.338C130.199 169.137 129.902 168.829 129.675 168.415C129.447 168 129.344 167.585 129.367 167.166C129.389 166.749 129.536 166.355 129.806 165.985C130.077 165.615 130.465 165.289 130.97 165.013L134.312 163.174Z" fill="white"/>
      <path d="M123.151 172.32L123.142 172.708C122.649 172.898 122.216 172.989 121.841 172.98C121.466 172.971 121.151 172.88 120.894 172.699C120.638 172.521 120.441 172.271 120.312 171.95C120.171 171.607 120.124 171.273 120.171 170.94C120.218 170.61 120.367 170.303 120.615 170.022C120.863 169.739 121.22 169.503 121.687 169.313L126.355 167.398L127.199 170.838L128.951 173.709L124.453 175.555C123.868 175.796 123.359 175.845 122.919 175.707C122.482 175.568 122.162 175.259 121.966 174.775C121.856 174.512 121.816 174.233 121.839 173.941C121.863 173.649 121.977 173.364 122.182 173.087C122.388 172.811 122.709 172.554 123.151 172.32ZM124.794 168.51L125.804 169.05L122.66 170.339C122.408 170.441 122.236 170.584 122.147 170.767C122.057 170.947 122.057 171.148 122.147 171.366C122.236 171.585 122.386 171.73 122.591 171.799C122.796 171.868 123.049 171.841 123.346 171.721L125.94 170.655L126.431 171.85L124.071 172.817C123.868 172.9 123.723 173.029 123.636 173.208C123.549 173.384 123.546 173.578 123.631 173.785C123.701 173.952 123.817 174.068 123.98 174.128C124.143 174.189 124.335 174.175 124.553 174.086L127.384 172.924L127.054 174.015L125.527 171.524L124.79 168.513L124.794 168.51Z" fill="white"/>
      <path d="M118.854 170.441L120.807 176.977L119.026 177.508L117.356 171.921L117.887 171.886L115.813 178.464L113.449 179.169L111.495 172.632L113.284 172.1L114.985 177.791L114.445 177.829L116.557 171.125L118.852 170.441H118.854Z" fill="white"/>
      <path d="M110.661 171.469L111.207 174.458L109.756 174.724L109.163 174.813L104.503 175.664L104.041 175.767L102.088 176.124L101.541 173.134L103.28 172.818L103.528 174.169L109.171 173.139L108.924 171.788L110.663 171.471L110.661 171.469ZM110.739 179.786L104.171 180.986L103.037 174.795L104.901 174.454L105.892 179.867L104.896 179.18L109.457 178.346L108.799 179.104C108.7 178.839 108.624 178.578 108.569 178.324C108.513 178.07 108.464 177.825 108.421 177.593C108.294 176.895 108.247 176.295 108.283 175.796C108.319 175.297 108.435 174.902 108.631 174.614C108.828 174.325 109.109 174.148 109.473 174.082L110.37 174.583C110.183 174.906 110.076 175.323 110.053 175.829C110.029 176.335 110.082 176.948 110.214 177.664C110.274 177.992 110.348 178.333 110.437 178.687C110.527 179.042 110.627 179.407 110.741 179.789L110.739 179.786Z" fill="white"/>
      <path d="M99.1966 178.079L99.4176 175.314L100.25 176.104L95.0397 176.532L94.9147 175.009L101.242 174.49L101.005 177.932L101.802 181.289L95.5197 181.806L95.3947 180.283L100.561 179.858L99.8686 180.772L99.1989 178.079H99.1966ZM95.5487 179.064L95.4371 177.704L100.42 177.294L100.532 178.654L95.5487 179.064Z" fill="white"/>
      <path d="M90.3358 174.886C91.144 174.9 91.8495 175.06 92.4545 175.366C93.0595 175.671 93.5261 176.095 93.8543 176.634C94.1824 177.174 94.3409 177.798 94.3298 178.507C94.3186 179.216 94.14 179.835 93.794 180.364C93.4479 180.892 92.9679 181.3 92.354 181.588C91.7401 181.875 91.0279 182.011 90.2197 181.998C89.4071 181.984 88.6972 181.824 88.0966 181.518C87.4939 181.211 87.0273 180.789 86.6969 180.25C86.3665 179.71 86.2057 179.086 86.2169 178.377C86.228 177.668 86.4089 177.049 86.7571 176.52C87.1054 175.992 87.5854 175.584 88.1993 175.296C88.811 175.009 89.5232 174.873 90.3381 174.886H90.3358ZM90.309 176.569C89.8648 176.563 89.483 176.632 89.1571 176.779C88.8334 176.926 88.5811 177.136 88.4047 177.412C88.2261 177.689 88.1346 178.021 88.1279 178.409C88.1212 178.796 88.2038 179.131 88.3712 179.414C88.5387 179.695 88.7842 179.916 89.1035 180.072C89.4227 180.228 89.8045 180.31 90.2465 180.317C90.6841 180.324 91.0636 180.254 91.3896 180.107C91.7133 179.96 91.9656 179.751 92.1464 179.474C92.3272 179.198 92.421 178.866 92.4277 178.478C92.4344 178.09 92.3518 177.755 92.1799 177.472C92.008 177.191 91.7624 176.971 91.4432 176.815C91.1239 176.659 90.7466 176.576 90.309 176.569Z" fill="white"/>
      <path d="M85.239 178.765L82.8503 178.578L82.9664 177.118L85.3551 177.305L85.239 178.765Z" fill="white"/>
      <path d="M77.3695 180.839C76.8047 180.758 76.3291 180.593 75.9451 180.341C75.5611 180.092 75.2843 179.775 75.1191 179.392C74.9517 179.01 74.9026 178.585 74.9695 178.117C75.0365 177.655 75.2017 177.263 75.4674 176.942C75.7331 176.621 76.0858 176.393 76.5256 176.262C76.9654 176.128 77.4677 176.101 78.0325 176.182L80.9638 176.598L80.7517 178.094L77.9388 177.695C77.6374 177.653 77.394 177.693 77.2043 177.816C77.0145 177.938 76.9029 178.13 76.8649 178.389C76.827 178.652 76.8828 178.87 77.0301 179.042C77.1775 179.213 77.4007 179.32 77.7021 179.363L80.3543 179.739L79.3921 180.484L80.265 174.36L82.1314 174.625L81.1692 181.378L77.3717 180.839H77.3695Z" fill="white"/>
      <path d="M74.9383 173.584L73.3331 180.214L71.527 179.777L72.9 174.111L73.3778 174.347L68.2698 178.99L65.8699 178.411L67.475 171.781L69.2901 172.22L67.8925 177.994L67.4058 177.755L72.6098 173.023L74.9383 173.584Z" fill="white"/>
      <path d="M63.0368 177.51L56.7233 175.256L59.0228 168.834L60.8066 169.471L58.7839 175.125L58.266 174.032L62.606 175.582L61.6482 175.907C61.7375 175.515 61.8358 175.143 61.9407 174.79C62.0478 174.438 62.155 174.108 62.2666 173.801C62.5613 172.978 62.8739 172.336 63.2087 171.872C63.5436 171.409 63.912 171.114 64.3183 170.989C64.7246 170.865 65.1823 170.891 65.6913 171.074C65.9145 171.154 66.1244 171.255 66.3231 171.377C66.5218 171.5 66.6937 171.638 66.8366 171.792L66.3097 173.266C66.0931 173.078 65.8788 172.947 65.6667 172.871C65.2939 172.739 64.9679 172.811 64.6844 173.089C64.4009 173.368 64.1218 173.89 63.8472 174.654C63.7133 175.027 63.5816 175.448 63.4476 175.923C63.3137 176.398 63.1775 176.926 63.0368 177.515V177.51Z" fill="white"/>
      <path d="M55.165 166.872C55.8192 167.18 56.3483 167.541 56.7524 167.955C57.1564 168.37 57.4176 168.807 57.5315 169.268C57.6454 169.732 57.6052 170.191 57.4154 170.653L55.7031 169.844C55.8058 169.529 55.7589 169.231 55.5647 168.947C55.3704 168.664 55.0311 168.408 54.5466 168.181C54.0912 167.967 53.7095 167.862 53.4058 167.868C53.1 167.875 52.8901 168.002 52.7718 168.247C52.6713 168.461 52.7026 168.667 52.8656 168.865C53.0308 169.063 53.3545 169.277 53.8367 169.505L54.9641 170.038L54.4306 171.163L53.3277 170.642C53.0419 170.508 52.7964 170.423 52.591 170.39C52.3856 170.356 52.2137 170.367 52.0753 170.423C51.9369 170.479 51.8386 170.573 51.7761 170.704C51.7069 170.851 51.698 171.001 51.7516 171.15C51.8051 171.299 51.9145 171.444 52.0797 171.587C52.2449 171.727 52.4615 171.863 52.7294 171.99C53.1737 172.2 53.5576 172.289 53.8814 172.258C54.2051 172.227 54.4551 172.082 54.6315 171.823L56.3282 172.624C56.1027 173.014 55.7857 173.312 55.3749 173.522C54.9641 173.729 54.473 173.818 53.9037 173.787C53.3344 173.756 52.7093 173.58 52.0284 173.259C51.4412 172.982 50.9613 172.666 50.5929 172.314C50.2223 171.961 49.9767 171.596 49.8562 171.221C49.7356 170.845 49.7557 170.486 49.9209 170.14C50.0526 169.861 50.258 169.645 50.5348 169.494C50.8117 169.342 51.1622 169.284 51.5864 169.315C52.0105 169.346 52.5084 169.5 53.0799 169.77L52.9973 169.942C52.4459 169.714 52.0016 169.46 51.66 169.179C51.3207 168.898 51.0974 168.597 50.9925 168.281C50.8876 167.962 50.9166 167.632 51.0818 167.287C51.2582 166.914 51.5372 166.642 51.9212 166.471C52.3052 166.299 52.7718 166.243 53.321 166.301C53.8702 166.359 54.4864 166.551 55.1673 166.872H55.165Z" fill="white"/>
      <path d="M47.1638 165.171C47.3736 165.294 47.5344 165.456 47.6482 165.657C47.7621 165.858 47.8179 166.074 47.8157 166.306C47.8134 166.538 47.7487 166.756 47.6259 166.966C47.4986 167.18 47.3357 167.342 47.1347 167.454C46.9361 167.565 46.7195 167.619 46.4873 167.617C46.2551 167.614 46.0364 167.55 45.8265 167.427C45.6122 167.3 45.4492 167.137 45.3376 166.939C45.226 166.74 45.1724 166.526 45.1724 166.297C45.1724 166.069 45.2371 165.847 45.3644 165.632C45.4872 165.423 45.6501 165.262 45.8511 165.149C46.052 165.035 46.2685 164.979 46.4963 164.979C46.724 164.979 46.9472 165.044 47.1615 165.171H47.1638Z" fill="white"/>
      <path d="M34.4832 162.26L38.5151 156.751L40.0376 157.861L36.4902 162.708L36.3116 161.519L40.473 164.558L39.2831 164.75L42.8305 159.903L44.3531 161.013L40.3212 166.522L34.4832 162.26Z" fill="white"/>
      <path d="M30.2526 158.603C29.8239 158.227 29.5203 157.828 29.3373 157.406C29.1542 156.985 29.0984 156.57 29.1698 156.16C29.2413 155.75 29.4333 155.367 29.748 155.012C30.0584 154.662 30.4111 154.426 30.8107 154.305C31.2103 154.185 31.63 154.187 32.0698 154.317C32.5096 154.446 32.945 154.7 33.3714 155.077L35.5905 157.034L34.5903 158.167L32.4605 156.287C32.2328 156.087 32.0051 155.986 31.7796 155.984C31.5541 155.982 31.3532 156.08 31.1813 156.276C31.0049 156.477 30.9313 156.689 30.9603 156.911C30.9893 157.134 31.1166 157.348 31.3443 157.549L33.3513 159.319L32.1368 159.413L36.2379 154.778L37.6511 156.024L33.128 161.136L30.2548 158.601L30.2526 158.603Z" fill="white"/>
      <path d="M29.757 148.375C30.3106 148.964 30.6857 149.582 30.8866 150.23C31.0876 150.879 31.1076 151.508 30.9491 152.118C30.7906 152.729 30.4513 153.278 29.9333 153.761C29.4154 154.247 28.8461 154.548 28.2255 154.669C27.6049 154.789 26.9775 154.727 26.3435 154.486C25.7095 154.245 25.1156 153.831 24.562 153.242C24.0061 152.649 23.6288 152.029 23.4301 151.385C23.2314 150.739 23.2113 150.11 23.3676 149.497C23.5238 148.884 23.8632 148.335 24.3811 147.849C24.8991 147.363 25.4706 147.062 26.0912 146.944C26.7141 146.826 27.3414 146.889 27.9732 147.127C28.605 147.366 29.2011 147.782 29.757 148.375ZM28.5291 149.526C28.2255 149.203 27.9085 148.975 27.5781 148.846C27.2477 148.714 26.9217 148.683 26.598 148.748C26.2765 148.812 25.9729 148.977 25.6894 149.243C25.4058 149.508 25.2228 149.8 25.1357 150.117C25.0509 150.433 25.062 150.761 25.1714 151.1C25.2808 151.439 25.4884 151.768 25.7898 152.092C26.089 152.41 26.4038 152.636 26.7342 152.765C27.0646 152.896 27.3928 152.93 27.7165 152.867C28.0402 152.805 28.3438 152.64 28.6273 152.375C28.9109 152.11 29.0939 151.817 29.1765 151.499C29.2591 151.18 29.2457 150.85 29.1363 150.513C29.027 150.174 28.8216 149.847 28.5224 149.528L28.5291 149.526Z" fill="white"/>
      <path d="M19.4763 140.597C19.9943 140.285 20.539 140.129 21.1083 140.129C21.6776 140.129 22.2335 140.276 22.7715 140.571C23.3118 140.865 23.8007 141.302 24.2449 141.879C24.7294 142.51 25.033 143.152 25.158 143.803C25.2831 144.456 25.2339 145.076 25.0107 145.662C24.7874 146.249 24.3945 146.759 23.8297 147.189C23.2649 147.62 22.671 147.867 22.0459 147.93C21.4208 147.992 20.8091 147.876 20.2108 147.586C19.6125 147.294 19.0722 146.833 18.5878 146.202C18.1458 145.624 17.8511 145.036 17.7082 144.441C17.5653 143.846 17.5675 143.27 17.7171 142.722C17.8667 142.174 18.1591 141.69 18.5967 141.271L19.7487 142.773C19.5545 142.998 19.4294 143.241 19.3759 143.504C19.3223 143.767 19.3357 144.044 19.4205 144.334C19.5053 144.624 19.6594 144.916 19.8849 145.21C20.1438 145.546 20.4274 145.792 20.7399 145.943C21.0502 146.095 21.3717 146.148 21.6999 146.104C22.0281 146.059 22.3518 145.914 22.671 145.671C22.9903 145.428 23.2135 145.154 23.343 144.849C23.4725 144.543 23.5037 144.222 23.439 143.881C23.3743 143.542 23.2113 143.203 22.9546 142.867C22.7291 142.573 22.4902 142.345 22.2357 142.185C21.9812 142.024 21.72 141.935 21.4499 141.922C21.1797 141.908 20.9074 141.966 20.6328 142.098L19.4808 140.595L19.4763 140.597Z" fill="white"/>
      <path d="M10.2963 133.214L16.1611 129.718L17.0809 131.257L11.7943 134.409L11.6269 134.041L18.2284 133.178L19.2084 134.819L15.335 140.212L15.085 139.884L20.3559 136.743L21.2757 138.281L15.4109 141.777L13.9174 139.278L17.6993 134.175L18.0721 134.799L11.7898 135.715L10.2963 133.216V133.214Z" fill="white"/>
      <path d="M14.3192 125.233C14.6497 125.969 14.8037 126.675 14.7814 127.353C14.759 128.031 14.5738 128.633 14.2232 129.157C13.8727 129.683 13.3749 130.089 12.7252 130.381C12.0778 130.67 11.4393 130.771 10.8142 130.682C10.1891 130.592 9.61537 130.329 9.0952 129.895C8.57503 129.46 8.14862 128.874 7.81821 128.138C7.48557 127.396 7.33152 126.689 7.35385 126.013C7.37841 125.338 7.5637 124.738 7.91197 124.21C8.26024 123.682 8.75809 123.274 9.40775 122.984C10.0574 122.694 10.6937 122.594 11.321 122.687C11.9483 122.781 12.5221 123.042 13.04 123.472C13.5602 123.904 13.9866 124.491 14.3192 125.233ZM12.7811 125.92C12.6002 125.516 12.3747 125.197 12.1046 124.966C11.8345 124.734 11.5376 124.598 11.2116 124.553C10.8857 124.509 10.5463 124.567 10.1914 124.725C9.83639 124.883 9.56626 125.099 9.38319 125.371C9.20013 125.643 9.10413 125.955 9.0952 126.312C9.0885 126.667 9.17557 127.048 9.3564 127.451C9.535 127.85 9.76048 128.165 10.0306 128.397C10.3007 128.628 10.5999 128.767 10.9258 128.813C11.2518 128.86 11.5934 128.804 11.9483 128.646C12.3033 128.488 12.5712 128.272 12.7543 127.997C12.9373 127.723 13.0333 127.409 13.04 127.052C13.0467 126.698 12.9619 126.321 12.7833 125.922L12.7811 125.92Z" fill="white"/>
      <path d="M6.0523 123.706L3.75729 116.991L5.34237 116.45L7.63738 123.164L6.0523 123.706ZM5.99426 120.977L5.38255 119.187L11.0643 117.25L11.676 119.04L5.99426 120.977Z" fill="white"/>
      <path d="M2.5004 112.049C2.36422 111.496 2.33966 110.995 2.42896 110.544C2.51826 110.094 2.70802 109.722 3.00048 109.425C3.29294 109.129 3.67023 108.924 4.13013 108.81C4.58332 108.698 5.00973 108.705 5.40712 108.832C5.8045 108.959 6.1483 109.202 6.4363 109.559C6.72429 109.916 6.93638 110.37 7.07256 110.923L7.78026 113.792L6.31128 114.153L5.63037 111.398C5.55669 111.104 5.42944 110.892 5.24414 110.763C5.05885 110.633 4.84006 110.6 4.58556 110.662C4.32659 110.727 4.14575 110.859 4.04083 111.059C3.93813 111.26 3.9225 111.507 3.99394 111.802L4.63467 114.399L3.58316 113.786L9.59752 112.305L10.0485 114.133L3.41573 115.765L2.49817 112.047L2.5004 112.049Z" fill="white"/>
      <path d="M4.66145 105.531L7.43868 105.544L6.71089 106.431L5.89826 101.275L7.40966 101.036L8.39643 107.298L4.94275 107.316L1.64981 108.36L0.669746 102.142L2.18115 101.904L2.98708 107.015L2.02264 106.393L4.66145 105.526V105.531ZM3.40902 101.97L4.75968 101.759L5.53883 106.692L4.18816 106.904L3.40902 101.97Z" fill="white"/>
      <path d="M0.533566 101.114L0.0223236 94.0385L1.69447 93.9182L2.20347 100.994L0.531333 101.114H0.533566ZM1.17429 98.4592L1.03811 96.5732L7.02567 96.143L7.16186 98.029L1.17429 98.4592Z" fill="white"/>
      <path d="M6.83145 92.8793L0 92.7678L0.031255 90.8863L6.22421 90.9866L5.3647 91.8182L5.40711 89.1631C5.41158 88.8532 5.3379 88.6124 5.18163 88.4363C5.02759 88.2602 4.8155 88.171 4.5476 88.1666C4.27524 88.1621 4.06092 88.2446 3.90687 88.4162C3.75283 88.5857 3.67246 88.8264 3.668 89.1363L3.62111 91.9564L2.12757 91.9319L2.17445 88.9936C2.18338 88.4185 2.29054 87.9236 2.4937 87.5112C2.69686 87.0987 2.97815 86.7844 3.33312 86.5704C3.68809 86.3541 4.10333 86.2516 4.57662 86.2583C5.04991 86.265 5.46292 86.3831 5.81343 86.6105C6.16616 86.8379 6.43406 87.1612 6.62159 87.578C6.80912 87.9971 6.89842 88.4943 6.88949 89.0694L6.82698 92.8793H6.83145Z" fill="white"/>
      <path d="M4.38017 78.6675L4.04752 78.4691C4.12566 77.9475 4.25961 77.5261 4.45161 77.2051C4.64137 76.8841 4.88025 76.6567 5.16154 76.5207C5.44507 76.3847 5.75762 76.3401 6.10142 76.3825C6.46979 76.4293 6.78457 76.5542 7.05023 76.7592C7.3159 76.9643 7.51013 77.243 7.63292 77.5975C7.7557 77.9519 7.78696 78.3799 7.72222 78.8793L7.09042 83.8774L3.67693 82.9143L0.312553 83.0213L0.922026 78.2016C1.0024 77.5752 1.21002 77.107 1.54489 76.7949C1.882 76.4828 2.30841 76.3602 2.82635 76.4249C3.10987 76.4605 3.37331 76.5608 3.61442 76.7258C3.85553 76.8908 4.04752 77.1315 4.18817 77.4436C4.32882 77.758 4.39133 78.1637 4.37793 78.6631L4.38017 78.6675ZM6.8895 81.9736L5.92059 82.5844L6.347 79.2182C6.38049 78.9484 6.34253 78.7277 6.22868 78.5605C6.11482 78.3933 5.94068 78.2952 5.70627 78.2662C5.47186 78.2373 5.27317 78.293 5.11019 78.4379C4.94722 78.5828 4.84676 78.8147 4.80657 79.1334L4.45384 81.9134L3.17015 81.7506L3.4894 79.2249C3.51619 79.0086 3.476 78.8191 3.36438 78.6542C3.25275 78.4914 3.08755 78.3955 2.8643 78.3666C2.68347 78.3443 2.52719 78.3889 2.39324 78.5003C2.25929 78.6118 2.17892 78.7857 2.14767 79.0198L1.76368 82.0516L0.977838 81.229L3.90018 81.1309L6.88726 81.9758L6.8895 81.9736Z" fill="white"/>
      <path d="M8.13969 75.8586L1.48015 74.336L1.89539 72.528L7.58603 73.8299L7.35385 74.3092L2.64328 69.2666L3.19471 66.8634L9.85425 68.386L9.43677 70.2029L3.63897 68.8764L3.87115 68.3882L8.67326 73.5268L8.13746 75.8586H8.13969Z" fill="white"/>
      <path d="M3.99171 64.2038L6.18402 57.9061L12.1381 59.9726L11.5152 61.7605L6.30904 59.9548L7.3985 59.4287L5.87594 63.8026L5.53883 62.8573C5.81789 62.9041 6.08356 62.9643 6.3336 63.0424C6.58364 63.1182 6.82028 63.1962 7.04353 63.2742C7.71552 63.506 8.26024 63.7624 8.67772 64.0389C9.0952 64.3153 9.38096 64.6096 9.53723 64.9239C9.69128 65.2382 9.70914 65.5682 9.58635 65.9182L8.70674 66.451C8.51698 66.1277 8.20667 65.8312 7.77803 65.5592C7.34939 65.2895 6.78903 65.0331 6.10142 64.7946C5.78664 64.6854 5.45176 64.5828 5.09903 64.4847C4.74629 64.3889 4.37793 64.2952 3.99171 64.2061V64.2038ZM11.2786 68.2344L8.40536 67.2379L8.88981 65.8468L9.10413 65.285L10.6579 60.8175L10.7964 60.365L11.4483 58.4924L14.3215 59.4889L13.741 61.1564L12.4417 60.7061L10.5575 66.1188L11.8568 66.5691L11.2764 68.2366L11.2786 68.2344Z" fill="white"/>
      <path d="M11.1692 55.0169L13.4687 56.5707L12.3703 56.9051L14.5671 52.1678L15.9557 52.8099L13.2878 58.5615L10.4057 56.6576L7.08818 55.6946L9.73816 49.9831L11.1268 50.6252L8.94785 55.3223L8.49242 54.2701L11.167 55.0169H11.1692ZM12.1113 51.3631L13.3503 51.936L11.2496 56.4682L10.0105 55.8952L12.1135 51.3631H12.1113Z" fill="white"/>
      <path d="M18.3333 48.8841C17.927 49.5818 17.4425 50.1191 16.8799 50.4959C16.3173 50.8726 15.719 51.0733 15.0872 51.0978C14.4554 51.1201 13.8326 50.9551 13.2186 50.5984C12.6047 50.2417 12.1515 49.7847 11.8568 49.2252C11.5643 48.6656 11.4416 48.0481 11.4907 47.3726C11.5398 46.6971 11.7675 46.0105 12.1738 45.3127C12.5824 44.6105 13.069 44.071 13.6294 43.6965C14.192 43.322 14.7903 43.1213 15.4221 43.0946C16.0539 43.0701 16.679 43.235 17.2929 43.5917C17.9069 43.9484 18.3601 44.4076 18.6503 44.9694C18.9405 45.5312 19.0633 46.1487 19.0164 46.822C18.9695 47.4952 18.7396 48.1841 18.331 48.8863L18.3333 48.8841ZM16.8755 48.0392C17.0987 47.6557 17.2237 47.2879 17.255 46.9334C17.2862 46.579 17.2237 46.258 17.0697 45.9682C16.9156 45.6783 16.6701 45.4376 16.333 45.2414C15.9981 45.0475 15.6654 44.9538 15.3373 44.9627C15.0091 44.9717 14.6988 45.0787 14.4063 45.2793C14.1139 45.4822 13.8549 45.7742 13.6339 46.1554C13.4151 46.5322 13.2901 46.8978 13.2588 47.2522C13.2276 47.6067 13.2901 47.9299 13.4441 48.222C13.5982 48.514 13.8415 48.757 14.1786 48.9532C14.5157 49.1471 14.8483 49.2408 15.1788 49.2274C15.5092 49.2162 15.8195 49.1092 16.1119 48.9064C16.4044 48.7057 16.6611 48.4159 16.8799 48.0369L16.8755 48.0392Z" fill="white"/>
      <path d="M17.476 42.5529L18.8222 40.5755L20.0344 41.3981L18.6882 43.3755L17.476 42.5529Z" fill="white"/>
      <path d="M19.5679 34.7057C19.9184 34.2554 20.2957 33.9255 20.7042 33.7159C21.1127 33.5064 21.5235 33.4239 21.9388 33.4685C22.354 33.5131 22.7469 33.6803 23.122 33.9701C23.4926 34.2554 23.7493 34.5943 23.8967 34.9844C24.044 35.3745 24.0663 35.7936 23.9636 36.2395C23.8632 36.6876 23.6377 37.1357 23.2872 37.586L21.4722 39.9223L20.2778 38.9971L22.0191 36.7545C22.2044 36.5159 22.2915 36.2819 22.2781 36.0567C22.2647 35.8315 22.1553 35.6398 21.9477 35.4793C21.7356 35.3166 21.5191 35.2564 21.298 35.2987C21.077 35.3411 20.8716 35.4838 20.6863 35.7223L19.0455 37.8357L18.8735 36.6319L23.7672 40.4217L22.6108 41.9086L17.2126 37.7287L19.5634 34.7035L19.5679 34.7057Z" fill="white"/>
      <path d="M27.0891 36.1838L22.1129 31.5112L23.3854 30.1602L27.6383 34.1551L27.1963 34.4516L25.6804 27.7236L27.3704 25.929L32.3467 30.6016L31.0675 31.9592L26.7342 27.8908L27.1829 27.5876L28.7278 34.4449L27.0869 36.1882L27.0891 36.1838Z" fill="white"/>
      <path d="M29.5494 23.9181L34.6261 19.5465L39.0866 24.714L37.6511 25.949L33.7264 21.4035L34.9341 21.4927L31.4425 24.4978L31.6323 23.5057C31.9314 23.7777 32.206 24.0452 32.4605 24.3127C32.715 24.578 32.9472 24.8366 33.1615 25.0841C33.7331 25.7462 34.1371 26.3347 34.376 26.8541C34.6149 27.3736 34.6886 27.8395 34.5993 28.2541C34.5077 28.6688 34.2577 29.0522 33.8491 29.4045C33.6705 29.5583 33.4786 29.692 33.2732 29.8035C33.07 29.915 32.8646 29.9952 32.657 30.0443L31.6345 28.8583C31.9046 28.7624 32.1234 28.642 32.2953 28.4949C32.5945 28.2385 32.6927 27.9175 32.59 27.5341C32.4873 27.1506 32.1703 26.6513 31.639 26.036C31.3822 25.7373 31.0786 25.414 30.7326 25.064C30.3865 24.714 29.9914 24.3328 29.5494 23.9226V23.9181Z" fill="white"/>
      <path d="M42.6988 22.3264C42.1072 22.7433 41.5334 23.0242 40.9731 23.1736C40.4127 23.3229 39.9037 23.3318 39.446 23.2025C38.9861 23.0733 38.6044 22.8124 38.2985 22.4201L39.8479 21.3299C40.0711 21.5729 40.3547 21.6799 40.6985 21.651C41.0423 21.622 41.4307 21.4525 41.8683 21.1449C42.2791 20.8551 42.5581 20.5764 42.7032 20.3067C42.8484 20.0369 42.8417 19.7917 42.6831 19.5688C42.547 19.3748 42.3505 19.3013 42.0982 19.3459C41.8437 19.3904 41.4977 19.5666 41.0624 19.8742L40.0421 20.592L39.3232 19.5733L40.3212 18.871C40.5801 18.6904 40.7744 18.5166 40.9038 18.3561C41.0333 18.1933 41.1092 18.0395 41.1271 17.8924C41.145 17.7452 41.1137 17.6137 41.0289 17.4933C40.9351 17.3596 40.8078 17.2793 40.6516 17.2525C40.4953 17.2258 40.3145 17.2481 40.1091 17.3217C39.9037 17.3952 39.6804 17.5178 39.4371 17.6895C39.0352 17.9726 38.7673 18.2624 38.6356 18.5589C38.5039 18.8554 38.5061 19.1452 38.6446 19.4261L37.1108 20.5051C36.8809 20.1172 36.7782 19.6936 36.7983 19.2344C36.8184 18.7752 36.9836 18.3048 37.2917 17.8255C37.5997 17.3462 38.0619 16.8892 38.6758 16.4567C39.2071 16.0822 39.7184 15.8213 40.2073 15.6742C40.6962 15.5271 41.136 15.4914 41.5223 15.5717C41.9085 15.6519 42.2121 15.8481 42.4331 16.1602C42.6117 16.4121 42.6988 16.6975 42.6943 17.0118C42.6898 17.3261 42.5693 17.6605 42.3304 18.0127C42.0938 18.365 41.7165 18.7239 41.1985 19.0873L41.0891 18.9312C41.558 18.5634 42 18.3025 42.413 18.1443C42.826 17.986 43.1966 17.9414 43.5248 18.0061C43.853 18.0707 44.1276 18.2602 44.3486 18.5723C44.5875 18.9089 44.6857 19.2857 44.6455 19.7048C44.6053 20.1217 44.4245 20.5564 44.103 21.0045C43.7815 21.4525 43.3127 21.894 42.6965 22.3287L42.6988 22.3264Z" fill="white"/>
      <path d="M48.1215 16.2092C47.9117 16.3296 47.6906 16.3898 47.4585 16.3898C47.2263 16.3898 47.012 16.3318 46.811 16.2159C46.6101 16.1 46.4516 15.9373 46.3288 15.7255C46.2038 15.5092 46.1435 15.2885 46.1457 15.0589C46.1457 14.8315 46.206 14.6175 46.3221 14.4169C46.4382 14.2185 46.6012 14.058 46.8133 13.9353C47.0298 13.8105 47.2508 13.7503 47.4808 13.7525C47.7085 13.7525 47.9228 13.8127 48.1215 13.9264C48.3202 14.0401 48.4809 14.2051 48.606 14.4191C48.7265 14.6287 48.7868 14.8494 48.7868 15.0812C48.7868 15.3131 48.7287 15.5271 48.6171 15.7255C48.5033 15.9239 48.3381 16.0844 48.1237 16.2092H48.1215Z" fill="white"/>
      </g>
   </symbol>


</svg>