<svg xmlns="http://www.w3.org/2000/svg" aria-hidden="true" style="position:absolute;width:0;height:0;overflow:hidden">

   <!-- logo --> 
   <symbol viewBox="0 0 95 37" fill="none" id="logo" >
      <path d="M2.349 20.529H0.693C0.495 20.529 0.396 20.439 0.396 20.259V15.948C0.396 15.708 0.51 15.588 0.738 15.588H1.665C2.337 14.448 2.82 13.347 3.114 12.285C3.414 11.199 3.594 9.801 3.654 8.091L3.681 6.57C3.687 6.342 3.69 5.802 3.69 4.95C3.69 4.74 3.789 4.635 3.987 4.635H11.493C11.577 4.635 11.649 4.665 11.709 4.725C11.775 4.779 11.808 4.848 11.808 4.932V15.588H12.96C13.056 15.588 13.14 15.621 13.212 15.687C13.284 15.747 13.32 15.828 13.32 15.93V20.241C13.32 20.433 13.215 20.529 13.005 20.529H11.241C11.049 20.529 10.953 20.433 10.953 20.241V18H2.664V20.259C2.664 20.439 2.559 20.529 2.349 20.529ZM4.383 15.588H9.279V7.038H6.066C6.066 7.746 6.039 8.475 5.985 9.225C5.889 11.409 5.355 13.53 4.383 15.588ZM16.8695 18H15.0335C14.7755 18 14.6615 17.877 14.6915 17.631L16.0505 4.977C16.0745 4.743 16.2005 4.626 16.4285 4.626H18.7685C18.8585 4.626 18.9215 4.647 18.9575 4.689C18.9995 4.731 19.0475 4.818 19.1015 4.95L22.3235 13.86L25.4915 4.959C25.5335 4.833 25.5785 4.746 25.6265 4.698C25.6745 4.65 25.7435 4.626 25.8335 4.626H28.2275C28.4555 4.626 28.5785 4.743 28.5965 4.977L29.9555 17.631C29.9855 17.877 29.8685 18 29.6045 18H27.7775C27.6575 18 27.5705 17.973 27.5165 17.919C27.4625 17.865 27.4265 17.775 27.4085 17.649L26.4905 9.144L23.4305 17.397C23.3825 17.535 23.3315 17.625 23.2775 17.667C23.2295 17.709 23.1575 17.73 23.0615 17.73H21.5495C21.4535 17.73 21.3785 17.709 21.3245 17.667C21.2765 17.625 21.2285 17.535 21.1805 17.397L18.1745 9.135L17.2295 17.64C17.2175 17.766 17.1845 17.859 17.1305 17.919C17.0765 17.973 16.9895 18 16.8695 18ZM33.8846 18H32.1116C31.8176 18 31.6706 17.868 31.6706 17.604V5.031C31.6706 4.923 31.7156 4.83 31.8056 4.752C31.9016 4.674 32.0036 4.635 32.1116 4.635H33.9296C34.1216 4.635 34.2536 4.728 34.3256 4.914V13.428L40.2386 4.914C40.2866 4.83 40.3616 4.764 40.4636 4.716C40.5656 4.662 40.6646 4.635 40.7606 4.635H42.8756C42.9956 4.635 43.0916 4.674 43.1636 4.752C43.2356 4.824 43.2716 4.917 43.2716 5.031V17.604C43.2716 17.868 43.1396 18 42.8756 18H41.0576C40.7756 18 40.6436 17.868 40.6616 17.604V8.703L34.4066 17.703C34.3046 17.823 34.2236 17.904 34.1636 17.946C34.1036 17.982 34.0106 18 33.8846 18ZM51.038 18H49.103C48.869 18 48.752 17.88 48.752 17.64V7.047H45.395C45.161 7.047 45.044 6.927 45.044 6.687V4.986C45.044 4.752 45.161 4.635 45.395 4.635H54.845C55.079 4.635 55.196 4.752 55.196 4.986V6.687C55.196 6.927 55.079 7.047 54.845 7.047H51.389V17.64C51.389 17.88 51.272 18 51.038 18ZM59.3869 18H57.4789C57.2449 18 57.1279 17.877 57.1279 17.631V4.995C57.1279 4.761 57.2449 4.644 57.4789 4.644H62.7169C63.8929 4.644 64.8889 5.082 65.7049 5.958C66.0769 6.36 66.3649 6.822 66.5689 7.344C66.7729 7.86 66.8749 8.394 66.8749 8.946C66.8749 9.486 66.7699 10.014 66.5599 10.53C66.3499 11.04 66.0559 11.493 65.6779 11.889C65.2939 12.303 64.8409 12.624 64.3189 12.852C63.7969 13.08 63.2479 13.194 62.6719 13.194H59.7469V17.631C59.7469 17.877 59.6269 18 59.3869 18ZM59.7469 10.917H62.1859C62.7739 10.917 63.2599 10.725 63.6439 10.341C64.0159 9.969 64.2019 9.501 64.2019 8.937C64.2019 8.373 64.0159 7.899 63.6439 7.515C63.2539 7.125 62.7679 6.93 62.1859 6.93H59.7469V10.917ZM70.992 18H69.219C68.925 18 68.778 17.868 68.778 17.604V5.031C68.778 4.923 68.823 4.83 68.913 4.752C69.009 4.674 69.111 4.635 69.219 4.635H71.037C71.229 4.635 71.361 4.728 71.433 4.914V13.428L77.346 4.914C77.394 4.83 77.469 4.764 77.571 4.716C77.673 4.662 77.772 4.635 77.868 4.635H79.983C80.103 4.635 80.199 4.674 80.271 4.752C80.343 4.824 80.379 4.917 80.379 5.031V17.604C80.379 17.868 80.247 18 79.983 18H78.165C77.883 18 77.751 17.868 77.769 17.604V8.703L71.514 17.703C71.412 17.823 71.331 17.904 71.271 17.946C71.211 17.982 71.118 18 70.992 18ZM89.2344 3.06C88.5864 3.054 88.0284 2.826 87.5604 2.376C87.1044 1.956 86.8764 1.461 86.8764 0.890999C86.8764 0.788999 86.9094 0.707999 86.9754 0.647999C87.0474 0.581999 87.1314 0.548999 87.2274 0.548999H88.1724C88.2564 0.548999 88.3254 0.575999 88.3794 0.629999C88.4334 0.683999 88.4604 0.749999 88.4604 0.827999C88.4604 1.02 88.5324 1.179 88.6764 1.305C88.8204 1.431 89.0184 1.494 89.2704 1.494C89.4924 1.494 89.6754 1.434 89.8194 1.314C89.9634 1.188 90.0354 1.038 90.0354 0.864C90.0354 0.653999 90.1254 0.548999 90.3054 0.548999H91.2234C91.3374 0.548999 91.4334 0.581999 91.5114 0.647999C91.5894 0.707999 91.6284 0.788999 91.6284 0.890999C91.6284 1.467 91.3974 1.968 90.9354 2.394C90.4614 2.826 89.8944 3.048 89.2344 3.06ZM85.4454 18H83.6724C83.3784 18 83.2314 17.868 83.2314 17.604V5.031C83.2314 4.923 83.2764 4.83 83.3664 4.752C83.4624 4.674 83.5644 4.635 83.6724 4.635H85.4904C85.6824 4.635 85.8144 4.728 85.8864 4.914V13.428L91.7994 4.914C91.8474 4.83 91.9224 4.764 92.0244 4.716C92.1264 4.662 92.2254 4.635 92.3214 4.635H94.4364C94.5564 4.635 94.6524 4.674 94.7244 4.752C94.7964 4.824 94.8324 4.917 94.8324 5.031V17.604C94.8324 17.868 94.7004 18 94.4364 18H92.6184C92.3364 18 92.2044 17.868 92.2224 17.604V8.703L85.9674 17.703C85.8654 17.823 85.7844 17.904 85.7244 17.946C85.6644 17.982 85.5714 18 85.4454 18ZM3.591 36H1.827C1.719 36 1.626 35.967 1.548 35.901C1.476 35.829 1.44 35.739 1.44 35.631V23.004C1.44 22.758 1.554 22.635 1.782 22.635H11.529C11.625 22.635 11.706 22.668 11.772 22.734C11.844 22.8 11.88 22.887 11.88 22.995V35.622C11.88 35.736 11.844 35.829 11.772 35.901C11.7 35.967 11.604 36 11.484 36H9.729C9.615 36 9.519 35.964 9.441 35.892C9.369 35.82 9.333 35.727 9.333 35.613V25.011H3.996V35.622C3.996 35.73 3.957 35.82 3.879 35.892C3.801 35.964 3.705 36 3.591 36ZM16.3943 36H14.6213C14.3273 36 14.1803 35.868 14.1803 35.604V23.031C14.1803 22.923 14.2253 22.83 14.3153 22.752C14.4113 22.674 14.5133 22.635 14.6213 22.635H16.4393C16.6313 22.635 16.7633 22.728 16.8353 22.914V31.428L22.7483 22.914C22.7963 22.83 22.8713 22.764 22.9733 22.716C23.0753 22.662 23.1743 22.635 23.2703 22.635H25.3853C25.5053 22.635 25.6013 22.674 25.6733 22.752C25.7453 22.824 25.7813 22.917 25.7813 23.031V35.604C25.7813 35.868 25.6493 36 25.3853 36H23.5673C23.2853 36 23.1533 35.868 23.1713 35.604V26.703L16.9163 35.703C16.8143 35.823 16.7333 35.904 16.6733 35.946C16.6133 35.982 16.5203 36 16.3943 36ZM34.8798 36.189C33.6318 36.189 32.4708 35.874 31.3968 35.244C30.3648 34.65 29.5368 33.828 28.9128 32.778C28.2828 31.71 27.9678 30.549 27.9678 29.295C27.9678 28.047 28.2828 26.889 28.9128 25.821C29.5488 24.771 30.3768 23.955 31.3968 23.373C32.4648 22.755 33.6258 22.446 34.8798 22.446C36.3678 22.446 37.6758 22.86 38.8038 23.688C38.9058 23.772 38.9568 23.868 38.9568 23.976C38.9568 24.036 38.9418 24.09 38.9118 24.138L37.9578 25.749C37.8978 25.827 37.8228 25.866 37.7328 25.866C37.6488 25.866 37.5558 25.833 37.4538 25.767C36.9738 25.479 36.5628 25.275 36.2208 25.155C35.8068 25.011 35.3598 24.939 34.8798 24.939C33.6678 24.939 32.6568 25.359 31.8468 26.199C31.0368 27.045 30.6318 28.077 30.6318 29.295C30.6318 30.507 31.0368 31.548 31.8468 32.418C32.6808 33.288 33.6918 33.723 34.8798 33.723C35.8098 33.723 36.6528 33.444 37.4088 32.886C37.5288 32.79 37.6368 32.742 37.7328 32.742C37.8348 32.742 37.9158 32.787 37.9758 32.877L38.8848 34.416C38.9568 34.5 38.9928 34.575 38.9928 34.641C38.9928 34.737 38.9238 34.836 38.7858 34.938C37.6518 35.772 36.3498 36.189 34.8798 36.189ZM42.1712 36H40.2002C40.0082 36 39.9122 35.928 39.9122 35.784C39.9122 35.748 39.9272 35.691 39.9572 35.613L45.0422 22.977C45.1442 22.749 45.2942 22.635 45.4922 22.635H46.9952C47.2112 22.635 47.3642 22.749 47.4542 22.977L52.5302 35.613C52.5542 35.661 52.5662 35.715 52.5662 35.775C52.5662 35.925 52.4702 36 52.2782 36H50.3072C50.0852 36 49.9382 35.892 49.8662 35.676L48.9932 33.516H43.4762L42.6212 35.667C42.5312 35.889 42.3812 36 42.1712 36ZM44.3222 31.194H48.1382L46.2482 26.091L44.3222 31.194ZM56.6096 36H54.7016C54.4676 36 54.3506 35.877 54.3506 35.631V22.995C54.3506 22.761 54.4676 22.644 54.7016 22.644H59.9396C61.1156 22.644 62.1116 23.082 62.9276 23.958C63.2996 24.36 63.5876 24.822 63.7916 25.344C63.9956 25.86 64.0976 26.394 64.0976 26.946C64.0976 27.486 63.9926 28.014 63.7826 28.53C63.5726 29.04 63.2786 29.493 62.9006 29.889C62.5166 30.303 62.0636 30.624 61.5416 30.852C61.0196 31.08 60.4706 31.194 59.8946 31.194H56.9696V35.631C56.9696 35.877 56.8496 36 56.6096 36ZM56.9696 28.917H59.4086C59.9966 28.917 60.4826 28.725 60.8666 28.341C61.2386 27.969 61.4246 27.501 61.4246 26.937C61.4246 26.373 61.2386 25.899 60.8666 25.515C60.4766 25.125 59.9906 24.93 59.4086 24.93H56.9696V28.917ZM66.5497 36.459C66.2497 36.459 66.0997 36.351 66.0997 36.135V34.452C66.0997 34.356 66.1327 34.275 66.1987 34.209C66.2707 34.143 66.3577 34.11 66.4597 34.11C66.9457 34.11 67.3357 33.963 67.6297 33.669C67.8577 33.441 68.0677 33.069 68.2597 32.553L68.6017 31.653L65.1097 23.184C65.0737 23.088 65.0557 23.007 65.0557 22.941C65.0557 22.737 65.1787 22.635 65.4247 22.635H67.3147C67.5427 22.635 67.6897 22.743 67.7557 22.959L69.7717 28.962L71.7157 22.959C71.7817 22.743 71.9317 22.635 72.1657 22.635H74.0647C74.2567 22.635 74.3767 22.689 74.4247 22.797C74.4367 22.857 74.4427 22.899 74.4427 22.923C74.4427 22.989 74.4277 23.067 74.3977 23.157L70.4107 33.39C69.9907 34.53 69.4027 35.355 68.6467 35.865C68.0587 36.261 67.3597 36.459 66.5497 36.459ZM78.6195 36H76.6305C76.5465 36 76.4745 35.982 76.4145 35.946C76.3185 35.892 76.2705 35.805 76.2705 35.685V22.986C76.2705 22.752 76.3905 22.635 76.6305 22.635H78.6105C78.8205 22.635 78.9255 22.755 78.9255 22.995V28.287C79.2015 28.281 79.5225 28.077 79.8885 27.675C80.1285 27.417 80.3565 27.123 80.5725 26.793L80.6805 26.649L82.2195 24.507C82.7175 23.829 83.3475 23.328 84.1095 23.004C84.7035 22.746 85.3425 22.617 86.0265 22.617C86.0985 22.617 86.1645 22.638 86.2245 22.68C86.3025 22.734 86.3415 22.821 86.3415 22.941V24.651C86.3415 24.873 86.2305 24.984 86.0085 24.984C85.6365 24.984 85.2675 25.122 84.9015 25.398C84.5775 25.644 84.2775 25.956 84.0015 26.334L82.0485 28.962L87.4035 35.577C87.4515 35.643 87.4755 35.703 87.4755 35.757C87.4755 35.793 87.4665 35.829 87.4485 35.865C87.4005 35.955 87.3255 36 87.2235 36H84.8115C84.6195 36 84.4485 35.907 84.2985 35.721L80.2935 30.654C80.0595 30.876 79.7835 31.032 79.4655 31.122C79.2795 31.176 79.0995 31.203 78.9255 31.203V35.685C78.9255 35.763 78.8955 35.835 78.8355 35.901C78.7815 35.967 78.7095 36 78.6195 36Z" fill="white"/>
   </symbol>


</svg>