<svg width="512" height="512" viewBox="0 0 512 512" fill="none" xmlns="http://www.w3.org/2000/svg">
<rect width="512" height="512" fill="black"/>
<path d="M155.139 402H121.952C117.984 402 116 400.199 116 396.598V310.345C116 305.544 118.285 303.143 122.854 303.143H141.431C154.898 280.334 164.578 258.306 170.469 237.058C176.481 215.33 180.089 187.359 181.291 153.146L181.832 122.715C181.952 118.153 182.013 107.349 182.013 90.3024C182.013 86.1008 183.997 84 187.964 84H338.386C340.07 84 341.513 84.6002 342.715 85.8007C344.038 86.8811 344.699 88.2616 344.699 89.9422V303.143H367.786C369.709 303.143 371.393 303.803 372.836 305.123C374.279 306.324 375 307.944 375 309.985V396.238C375 400.079 372.896 402 368.687 402H333.336C329.489 402 327.565 400.079 327.565 396.238V351.401H161.451V396.598C161.451 400.199 159.347 402 155.139 402ZM195.9 303.143H294.017V132.078H229.628C229.628 146.243 229.087 160.829 228.005 175.835C226.081 219.531 215.38 261.967 195.9 303.143Z" fill="white"/>
</svg>
